<?xml version="1.0" encoding="UTF-8" standalone="no"?>
<svg
   xmlns:dc="http://purl.org/dc/elements/1.1/"
   xmlns:cc="http://creativecommons.org/ns#"
   xmlns:rdf="http://www.w3.org/1999/02/22-rdf-syntax-ns#"
   xmlns:svg="http://www.w3.org/2000/svg"
   xmlns="http://www.w3.org/2000/svg"
   xmlns:sodipodi="http://sodipodi.sourceforge.net/DTD/sodipodi-0.dtd"
   xmlns:inkscape="http://www.inkscape.org/namespaces/inkscape"
   version="1.1"
   x="0px"
   y="0px"
   width="716.9px"
   height="268.3px"
   viewBox="0 0 716.9 268.3"
   style="enable-background:new 0 0 716.9 268.3;"
   xml:space="preserve"
   id="svg2"
   inkscape:version="0.91 r13725"
   sodipodi:docname="logo.svg"><metadata
     id="metadata80"><rdf:RDF><cc:Work
         rdf:about=""><dc:format>image/svg+xml</dc:format><dc:type
           rdf:resource="http://purl.org/dc/dcmitype/StillImage" /><dc:title></dc:title></cc:Work></rdf:RDF></metadata><sodipodi:namedview
     pagecolor="#ffffff"
     bordercolor="#666666"
     borderopacity="1"
     objecttolerance="10"
     gridtolerance="10"
     guidetolerance="10"
     inkscape:pageopacity="0"
     inkscape:pageshadow="2"
     inkscape:window-width="1920"
     inkscape:window-height="1029"
     id="namedview78"
     showgrid="false"
     inkscape:zoom="1.195308"
     inkscape:cx="276.45164"
     inkscape:cy="147.59706"
     inkscape:window-x="0"
     inkscape:window-y="0"
     inkscape:window-maximized="1"
     inkscape:current-layer="svg2" /><style
     type="text/css"
     id="style4">
	.st0{fill:#E76114;}
	.st1{fill:#DFDD00;}
	.st2{fill:#00B3E7;}
	.st3{fill:#9C9BA0;}
</style><defs
     id="defs6" /><g
     id="g8"><path
       class="st0"
       d="M0,0v189.3c0,0,16.3-44.6,52.2-62.7V53.9C23.4,24.2,0,0,0,0z"
       id="path10" /><path
       class="st1"
       d="M52.2,13v40.9c24.8,25.7,53.6,55.5,74.8,77.3c-30.8-16.4-55.6-14.3-74.8-4.6v75.8c0,0,38.4-105.2,126.9-58.1   C133.6,97.2,52.2,13,52.2,13z"
       id="path12" /><path
       class="st2"
       d="M52.2,53.9v72.6c0,0,27.2-18.8,74.8,4.6L52.2,53.9z"
       id="path14" /></g><polygon
     class="st3"
     points="527.3,261.4 525.5,261.3 524.5,262.8 523.9,261.1 522.2,260.6 523.7,259.5 523.7,257.7 525.1,258.8   526.8,258.2 526.2,259.9 "
     id="polygon16" /><polygon
     class="st3"
     points="673.8,261.4 672,261.3 670.9,262.8 670.4,261.1 668.7,260.6 670.1,259.5 670.1,257.7 671.5,258.8   673.3,258.2 672.7,259.9 "
     id="polygon18" /><path
     class="st3"
     d="M375.6,256.1c0,0.9-0.4,1.7-1.1,2.4c-0.7,0.7-1.5,1-2.4,1h-7v5.2h-5.2v-13.9h12.2c0.9,0,1.7,0.3,2.4,1  c0.7,0.7,1.1,1.5,1.1,2.4V256.1z M370.3,254.4c0-0.2,0-0.4-0.1-0.6c-0.1-0.2-0.2-0.4-0.4-0.6c-0.2-0.2-0.3-0.3-0.5-0.4  c-0.2-0.1-0.4-0.1-0.7-0.1h-3.5v5.2h3.5c0.5,0,0.9-0.2,1.2-0.5c0.3-0.4,0.5-0.8,0.5-1.2V254.4z"
     id="path20" /><path
     class="st3"
     d="M385.8,257.9v-1.7H384c-0.2,0-0.4,0-0.6,0.1c-0.2,0.1-0.4,0.2-0.6,0.4c-0.2,0.2-0.3,0.3-0.4,0.6  c-0.1,0.2-0.1,0.4-0.1,0.7v7h-5.2v-7c0-0.9,0.3-1.7,1-2.4c0.7-0.7,1.5-1.1,2.4-1.1H391v3.5H385.8z"
     id="path22" /><path
     class="st3"
     d="M408,261.3c0,0.9-0.4,1.7-1.1,2.4c-0.7,0.7-1.5,1-2.4,1h-8.7c-0.9,0-1.8-0.3-2.5-1c-0.7-0.7-1-1.5-1-2.4v-3.5  c0-0.9,0.3-1.7,1-2.4c0.7-0.7,1.5-1.1,2.4-1.1h8.7c0.9,0,1.7,0.4,2.4,1.1c0.7,0.7,1.1,1.5,1.1,2.4V261.3z M402.8,257.9  c0-0.5-0.2-0.9-0.5-1.2c-0.3-0.3-0.7-0.5-1.2-0.5h-1.7c-0.2,0-0.4,0-0.6,0.1c-0.2,0.1-0.4,0.2-0.6,0.4c-0.2,0.2-0.3,0.3-0.4,0.6  c-0.1,0.2-0.1,0.4-0.1,0.7v3.5c0,0.2,0,0.5,0.1,0.7c0.1,0.2,0.2,0.4,0.4,0.6c0.2,0.2,0.3,0.3,0.6,0.4c0.2,0.1,0.4,0.1,0.6,0.1h1.7  c0.5,0,0.9-0.2,1.2-0.5c0.3-0.4,0.5-0.8,0.5-1.2V257.9z"
     id="path24" /><path
     class="st3"
     d="M413.1,264.8c-0.9,0-1.7-0.3-2.4-1c-0.7-0.7-1-1.5-1-2.4v-3.5c0-0.9,0.3-1.7,1-2.4c0.7-0.7,1.5-1.1,2.4-1.1h6.9  v-3.4h5.2v13.9H413.1z M420.1,256.1h-3.5c-0.2,0-0.4,0-0.6,0.1c-0.2,0.1-0.4,0.2-0.6,0.4c-0.2,0.2-0.3,0.3-0.4,0.6  c-0.1,0.2-0.2,0.4-0.2,0.7v3.5c0,0.2,0.1,0.5,0.2,0.7c0.1,0.2,0.2,0.4,0.4,0.6c0.2,0.2,0.3,0.3,0.6,0.4c0.2,0.1,0.4,0.1,0.6,0.1h3.5  V256.1z"
     id="path26" /><path
     class="st3"
     d="M443.3,261.3c0,0.9-0.4,1.7-1.1,2.4c-0.7,0.7-1.5,1-2.4,1h-8.7c-0.9,0-1.8-0.3-2.4-1c-0.7-0.7-1-1.5-1-2.4v-7  h5.2v7c0,0.2,0,0.5,0.1,0.7c0.1,0.2,0.2,0.4,0.4,0.6c0.2,0.2,0.3,0.3,0.6,0.4c0.2,0.1,0.4,0.1,0.6,0.1h1.7c0.5,0,0.9-0.2,1.2-0.5  c0.3-0.4,0.5-0.8,0.5-1.2v-7h5.2V261.3z"
     id="path28" /><path
     class="st3"
     d="M448.9,264.8c-0.9,0-1.8-0.3-2.4-1c-0.7-0.7-1-1.5-1-2.4v-3.5c0-0.9,0.3-1.7,1-2.4c0.7-0.7,1.5-1.1,2.4-1.1  h10.4v1.8h-7c-0.2,0-0.4,0-0.6,0.1c-0.2,0.1-0.4,0.2-0.6,0.4c-0.2,0.2-0.3,0.3-0.4,0.6c-0.1,0.2-0.1,0.4-0.1,0.7v3.5  c0,0.2,0.1,0.5,0.1,0.7c0.1,0.2,0.2,0.4,0.4,0.6c0.2,0.2,0.3,0.3,0.6,0.4c0.2,0.1,0.4,0.1,0.6,0.1h7v1.7H448.9z"
     id="path30" /><path
     class="st3"
     d="M464.3,264.8c-0.9,0-1.8-0.3-2.4-1c-0.7-0.7-1-1.5-1-2.4v-3.5c0-0.9,0.3-1.7,1-2.4c0.7-0.7,1.5-1.1,2.4-1.1  h10.4v1.8h-7c-0.2,0-0.4,0-0.6,0.1c-0.2,0.1-0.4,0.2-0.6,0.4c-0.2,0.2-0.3,0.3-0.4,0.6c-0.1,0.2-0.1,0.4-0.1,0.7v3.5  c0,0.2,0,0.5,0.1,0.7c0.1,0.2,0.2,0.4,0.4,0.6c0.2,0.2,0.3,0.3,0.6,0.4c0.2,0.1,0.4,0.1,0.6,0.1h7v1.7H464.3z"
     id="path32" /><path
     class="st3"
     d="M481.5,250c0,0.7-0.3,1.3-0.8,1.8c-0.5,0.5-1.1,0.8-1.8,0.8c-0.7,0-1.3-0.3-1.8-0.8c-0.5-0.5-0.8-1.2-0.8-1.8  c0-0.7,0.3-1.3,0.8-1.8c0.5-0.5,1.1-0.8,1.8-0.8c0.7,0,1.3,0.3,1.8,0.8C481.2,248.8,481.5,249.4,481.5,250z M476.3,264.8v-10.5h5.2  v10.5H476.3z"
     id="path34" /><path
     class="st3"
     d="M498.9,261.3c0,0.9-0.4,1.7-1.1,2.4c-0.7,0.7-1.5,1-2.4,1h-8.7c-0.9,0-1.7-0.3-2.4-1c-0.7-0.7-1-1.5-1-2.4v-3.5  c0-0.9,0.3-1.7,1-2.4c0.7-0.7,1.5-1.1,2.4-1.1h8.7c0.9,0,1.7,0.4,2.4,1.1c0.7,0.7,1.1,1.5,1.1,2.4V261.3z M493.7,257.9  c0-0.5-0.2-0.9-0.5-1.2c-0.3-0.3-0.8-0.5-1.2-0.5h-1.7c-0.2,0-0.4,0-0.6,0.1c-0.2,0.1-0.4,0.2-0.6,0.4c-0.2,0.2-0.3,0.3-0.4,0.6  c-0.1,0.2-0.1,0.4-0.1,0.7v3.5c0,0.2,0,0.5,0.1,0.7c0.1,0.2,0.2,0.4,0.4,0.6c0.2,0.2,0.3,0.3,0.6,0.4c0.2,0.1,0.4,0.1,0.6,0.1h1.7  c0.5,0,0.9-0.2,1.2-0.5c0.3-0.4,0.5-0.8,0.5-1.2V257.9z M488.9,253.5v-0.4l6.1-2.2l1.7,1.7L488.9,253.5z"
     id="path36" /><path
     class="st3"
     d="M511.4,264.8v-7c0-0.5-0.2-0.9-0.5-1.2c-0.3-0.3-0.8-0.5-1.2-0.5h-3.5v8.7H501v-10.5h12.2  c0.9,0,1.7,0.4,2.4,1.1c0.7,0.7,1.1,1.5,1.1,2.4v7H511.4z"
     id="path38" /><path
     class="st3"
     d="M536.5,264.8c-0.9,0-1.8-0.3-2.4-1c-0.7-0.7-1-1.5-1-2.4v-10.4h5.2v10.4c0,0.2,0,0.5,0.1,0.7  c0.1,0.2,0.2,0.4,0.4,0.6c0.2,0.2,0.3,0.3,0.6,0.4c0.2,0.1,0.4,0.1,0.6,0.1h7v1.7H536.5z"
     id="path40" /><path
     class="st3"
     d="M563.8,261.3c0,0.9-0.4,1.7-1.1,2.4c-0.7,0.7-1.5,1-2.4,1h-8.7c-0.9,0-1.8-0.3-2.5-1c-0.7-0.7-1-1.5-1-2.4v-3.5  c0-0.9,0.3-1.7,1-2.4c0.7-0.7,1.5-1.1,2.4-1.1h8.7c0.9,0,1.7,0.4,2.4,1.1c0.7,0.7,1.1,1.5,1.1,2.4V261.3z M558.5,257.9  c0-0.5-0.2-0.9-0.5-1.2c-0.4-0.3-0.8-0.5-1.2-0.5H555c-0.2,0-0.4,0-0.6,0.1c-0.2,0.1-0.4,0.2-0.6,0.4c-0.2,0.2-0.3,0.3-0.4,0.6  c-0.1,0.2-0.1,0.4-0.1,0.7v3.5c0,0.2,0,0.5,0.1,0.7c0.1,0.2,0.2,0.4,0.4,0.6c0.2,0.2,0.3,0.3,0.6,0.4c0.2,0.1,0.4,0.1,0.6,0.1h1.7  c0.5,0,0.9-0.2,1.2-0.5c0.3-0.4,0.5-0.8,0.5-1.2V257.9z"
     id="path42" /><path
     class="st3"
     d="M581.4,264.8c0,0.9-0.4,1.7-1.1,2.4c-0.7,0.7-1.5,1.1-2.4,1.1h-10.4v-1.8h7c0.5,0,0.9-0.2,1.2-0.5  c0.3-0.3,0.5-0.7,0.5-1.2h-6.9c-0.9,0-1.8-0.3-2.4-1c-0.7-0.7-1-1.5-1-2.4v-3.5c0-0.9,0.3-1.7,1-2.4c0.7-0.7,1.5-1.1,2.4-1.1h12.2  V264.8z M576.2,256.1h-3.5c-0.2,0-0.4,0-0.6,0.1c-0.2,0.1-0.4,0.2-0.6,0.4c-0.2,0.2-0.3,0.3-0.4,0.6c-0.1,0.2-0.1,0.4-0.1,0.7v3.5  c0,0.2,0,0.5,0.1,0.7c0.1,0.2,0.2,0.4,0.4,0.6c0.2,0.2,0.3,0.3,0.6,0.4c0.2,0.1,0.4,0.1,0.6,0.1h3.5V256.1z"
     id="path44" /><path
     class="st3"
     d="M583.5,264.8v-10.5h5.2v10.5H583.5z M583.9,253.5v-0.4l6.1-2.2l1.7,1.7L583.9,253.5z"
     id="path46" /><path
     class="st3"
     d="M608.8,262.2c0,0.9-0.4,1.5-1.2,2c-0.6,0.4-1.4,0.6-2.3,0.6h-12.2v-1.7h9.6c0.1,0,0.2,0,0.3-0.1  c0.1-0.1,0.2-0.1,0.3-0.2c0.1-0.1,0.1-0.2,0.2-0.3c0-0.1,0.1-0.2,0.1-0.3c0-0.4-0.9-0.8-2.7-1.2c-1.3-0.2-2.4-0.4-3.2-0.6  c-0.8-0.2-1.4-0.4-1.8-0.5c-1.8-0.7-2.7-1.6-2.7-2.9c0-0.9,0.4-1.6,1.1-2c0.6-0.4,1.4-0.6,2.4-0.6h12.2v1.8h-9.6  c-0.2,0-0.4,0.1-0.6,0.3c-0.2,0.2-0.3,0.4-0.3,0.6c0,0.4,0.9,0.8,2.7,1.1c2.6,0.5,4.3,0.9,5,1.2C607.9,260,608.8,261,608.8,262.2z"
     id="path48" /><path
     class="st3"
     d="M614.5,264.8c-0.9,0-1.8-0.3-2.4-1c-0.7-0.7-1-1.5-1-2.4v-10.4h5.2v3.4h5.2v1.8h-5.2v5.2c0,0.2,0,0.5,0.1,0.7  c0.1,0.2,0.2,0.4,0.4,0.6c0.2,0.2,0.3,0.3,0.6,0.4c0.2,0.1,0.4,0.1,0.6,0.1h5.2v1.7H614.5z"
     id="path50" /><path
     class="st3"
     d="M629.8,250c0,0.7-0.3,1.3-0.8,1.8c-0.5,0.5-1.1,0.8-1.8,0.8c-0.7,0-1.3-0.3-1.8-0.8c-0.5-0.5-0.8-1.2-0.8-1.8  c0-0.7,0.3-1.3,0.8-1.8c0.5-0.5,1.1-0.8,1.8-0.8c0.7,0,1.3,0.3,1.8,0.8C629.5,248.8,629.8,249.4,629.8,250z M624.6,264.8v-10.5h5.2  v10.5H624.6z"
     id="path52" /><path
     class="st3"
     d="M635.4,264.8c-0.9,0-1.8-0.3-2.4-1c-0.7-0.7-1-1.5-1-2.4v-3.5c0-0.9,0.3-1.7,1-2.4c0.7-0.7,1.5-1.1,2.4-1.1  h10.4v1.8h-7c-0.2,0-0.4,0-0.6,0.1c-0.2,0.1-0.4,0.2-0.6,0.4c-0.2,0.2-0.3,0.3-0.4,0.6c-0.1,0.2-0.1,0.4-0.1,0.7v3.5  c0,0.2,0,0.5,0.1,0.7c0.1,0.2,0.2,0.4,0.4,0.6c0.2,0.2,0.3,0.3,0.6,0.4c0.2,0.1,0.4,0.1,0.6,0.1h7v1.7H635.4z"
     id="path54" /><path
     class="st3"
     d="M662.9,261.3c0,0.9-0.4,1.7-1.1,2.4c-0.7,0.7-1.5,1-2.4,1h-8.7c-0.9,0-1.8-0.3-2.4-1c-0.7-0.7-1-1.5-1-2.4  c0-0.9,0.3-1.7,1-2.4c0.7-0.7,1.5-1.1,2.4-1.1h6.9c0-0.5-0.2-0.9-0.6-1.2c-0.3-0.3-0.7-0.5-1.2-0.5h-7v-1.8h10.4  c0.9,0,1.7,0.4,2.4,1.1c0.7,0.7,1.1,1.5,1.1,2.4V261.3z M657.7,259.6h-3.5c-0.2,0-0.4,0-0.6,0.1c-0.2,0.1-0.4,0.2-0.6,0.4  c-0.2,0.2-0.3,0.3-0.4,0.6c-0.1,0.2-0.1,0.4-0.1,0.6c0,0.2,0,0.5,0.1,0.7c0.1,0.2,0.2,0.4,0.4,0.6c0.2,0.2,0.3,0.3,0.6,0.4  c0.2,0.1,0.4,0.1,0.6,0.1h1.8c0.5,0,0.9-0.2,1.2-0.5c0.3-0.4,0.5-0.8,0.5-1.2V259.6z"
     id="path56" /><path
     class="st3"
     d="M694.9,261.3c0,0.9-0.4,1.7-1.1,2.4c-0.7,0.7-1.5,1-2.4,1h-12.2v-13.9H691c0.9,0,1.7,0.4,2.4,1.1  c0.7,0.7,1.1,1.5,1.1,2.4v0.4c0,1.3-0.6,2.4-1.8,3c0.6,0.3,1.1,0.7,1.6,1.3c0.4,0.6,0.6,1.2,0.6,1.9V261.3z M689.3,254.4  c0-0.2,0-0.4-0.1-0.6c-0.1-0.2-0.2-0.4-0.4-0.6c-0.2-0.2-0.3-0.3-0.6-0.4c-0.2-0.1-0.4-0.1-0.6-0.1h-3.1v4.4h3.1  c0.2,0,0.4,0,0.6-0.1c0.2-0.1,0.4-0.2,0.6-0.4c0.2-0.2,0.3-0.3,0.4-0.6c0.1-0.2,0.1-0.4,0.1-0.7V254.4z M689.6,260.5  c0-0.2,0-0.4-0.1-0.6c-0.1-0.2-0.2-0.4-0.4-0.6c-0.2-0.2-0.3-0.3-0.5-0.4c-0.2-0.1-0.4-0.1-0.7-0.1h-3.5v4.4h3.5  c0.5,0,0.9-0.2,1.2-0.5c0.3-0.4,0.5-0.8,0.5-1.2V260.5z"
     id="path58" /><g
     id="g60"><path
       class="st2"
       d="M124.5,197.9l-6.8,25.1H87.8l18.9-70.3h63.4c5.2,0,9.2,1.8,12,5.5c3,3.7,3.8,8.1,2.5,13l-2.2,8.2   c-1.3,5-4.4,9.3-9.4,12.9c-4.9,3.7-9.8,5.5-14.9,5.5H124.5z M154.5,171.2c0.5-1.8,0.2-3.3-0.8-4.8c-1.1-1.4-2.5-2-4.3-2h-15.9   l-5.9,21.8h15.9c1.7,0,3.5-0.7,5.4-2.1c1.8-1.4,3-2.9,3.5-4.7L154.5,171.2z"
       id="path62" /><path
       class="st2"
       d="M233.7,181.8h-7.2c-1.8,0-3.6,0.7-5.5,2c-1.8,1.4-2.9,2.9-3.4,4.6l-9.3,34.6h-29.9l9.3-34.6   c1.2-4.7,4.3-8.9,9.3-12.6c4.9-3.7,9.9-5.6,15.1-5.6h54.5l-5.4,19.8h-29.8L233.7,181.8z"
       id="path64" /><path
       class="st2"
       d="M279.2,223c-5.1,0-9.2-1.8-12.2-5.4c-2.9-3.7-3.7-7.9-2.5-12.7l4.5-16.5c1.2-4.7,4.3-8.9,9.3-12.6   c4.9-3.7,9.9-5.6,15.1-5.6h44c5.1,0,9.1,1.9,12,5.6c2.9,3.6,3.7,7.9,2.5,12.6l-4.4,16.5c-1.2,4.8-4.3,9-9.2,12.7   c-4.8,3.6-9.8,5.4-14.9,5.4H279.2z M321.8,188.4c0.5-1.7,0.2-3.2-0.9-4.6c-1-1.4-2.4-2-4.3-2h-8.8c-1.8,0-3.6,0.7-5.5,2   c-1.8,1.4-2.9,2.9-3.4,4.6l-4.4,16.5c-0.4,1.8-0.1,3.3,1,4.5c1.1,1.3,2.5,2,4.3,2h8.9c1.8,0,3.5-0.7,5.4-2c1.8-1.3,2.9-2.8,3.4-4.5   L321.8,188.4z"
       id="path66" /><path
       class="st2"
       d="M373,152.7H403L384.1,223h-29.9L373,152.7z"
       id="path68" /><path
       class="st2"
       d="M413.1,223c-5.1,0-9.2-1.8-12.2-5.4c-2.9-3.7-3.7-7.9-2.5-12.7l4.4-16.5c1.2-4.7,4.3-8.9,9.3-12.6   c4.9-3.7,9.9-5.6,15.1-5.6h44c5.1,0,9.1,1.9,12,5.6c2.9,3.6,3.7,7.9,2.5,12.6l-4.5,16.5c-1.2,4.8-4.3,9-9.2,12.7   c-4.8,3.6-9.8,5.4-14.9,5.4H413.1z M455.7,188.4c0.5-1.7,0.2-3.2-0.9-4.6c-1-1.4-2.4-2-4.3-2h-8.8c-1.8,0-3.6,0.7-5.5,2   c-1.8,1.4-2.9,2.9-3.4,4.6l-4.4,16.5c-0.4,1.8-0.1,3.3,1,4.5c1.1,1.3,2.5,2,4.3,2h8.9c1.8,0,3.5-0.7,5.4-2c1.8-1.3,2.9-2.8,3.4-4.5   L455.7,188.4z"
       id="path70" /><path
       class="st2"
       d="M489.8,240.5l3.1-11.7h36.9c3.1,0,5.8-1.7,7.9-5.1h-32.8c-5.2,0-9.3-1.8-12.2-5.5c-2.8-3.6-3.6-7.9-2.3-12.8   l4.6-16.8c1.3-4.9,4.4-9.2,9.3-12.9c4.8-3.7,9.9-5.6,15.1-5.6h63.3l-14,52c-1.3,4.8-4.4,9-9.4,12.6c-4.7,3.8-9.7,5.7-14.9,5.7   H489.8z M533.5,181.9c-1.8,0-3.6,0.7-5.5,2.1c-1.8,1.4-2.8,2.9-3.2,4.6l-4.6,16.8c-0.5,1.9-0.2,3.5,1,4.7c1.1,1.3,2.6,2,4.4,2h15.9   l8-30.2H533.5z"
       id="path72" /><path
       class="st2"
       d="M592.4,169h29.9L607.8,223h-29.9L592.4,169z M608.7,163.8c-3.8,0-7-1.4-9.4-4.3c-2.2-2.8-2.8-6.1-1.8-10.1   c1-3.8,3.5-7.1,7.3-10c3.9-2.8,7.8-4.3,11.6-4.3c3.8,0,6.8,1.4,9.2,4.3c2.3,2.8,2.9,6.1,1.9,10c-1.1,3.9-3.5,7.3-7.3,10.1   C616.4,162.4,612.6,163.8,608.7,163.8z"
       id="path74" /><path
       class="st2"
       d="M676.4,208.7c0.5-1.7,0.2-3.2-0.9-4.6c-1.1-1.4-2.5-2-4.3-2h-15.9l-5.7,20.9h-29.9l18.9-70.3h29.9l-10.1,37.6   h15.9c1.7,0,3.5-0.7,5.4-2.1c1.8-1.3,2.9-2.9,3.4-4.6l3.8-14.3h29.9l-3.2,11.8c-1.6,6.2-5.9,11.2-12.7,15c4.8,3.8,6.3,8.8,4.6,15.1   l-3.1,11.7h-29.9L676.4,208.7z"
       id="path76" /></g></svg>