<?xml version="1.0" encoding="UTF-8" standalone="no"?>
<svg
   xmlns:dc="http://purl.org/dc/elements/1.1/"
   xmlns:cc="http://creativecommons.org/ns#"
   xmlns:rdf="http://www.w3.org/1999/02/22-rdf-syntax-ns#"
   xmlns:svg="http://www.w3.org/2000/svg"
   xmlns="http://www.w3.org/2000/svg"
   xmlns:sodipodi="http://sodipodi.sourceforge.net/DTD/sodipodi-0.dtd"
   xmlns:inkscape="http://www.inkscape.org/namespaces/inkscape"
   version="1.1"
   x="0px"
   y="0px"
   width="716"
   height="273.71317"
   viewBox="0 0 715.99998 273.71318"
   xml:space="preserve"
   id="svg2"
   inkscape:version="0.91 r13725"
   sodipodi:docname="logo.svg"><metadata
     id="metadata80"><rdf:RDF><cc:Work
         rdf:about=""><dc:format>image/svg+xml</dc:format><dc:type
           rdf:resource="http://purl.org/dc/dcmitype/StillImage" /><dc:title></dc:title></cc:Work></rdf:RDF></metadata><sodipodi:namedview
     pagecolor="#ffffff"
     bordercolor="#666666"
     borderopacity="1"
     objecttolerance="10"
     gridtolerance="10"
     guidetolerance="10"
     inkscape:pageopacity="0"
     inkscape:pageshadow="2"
     inkscape:window-width="1920"
     inkscape:window-height="1028"
     id="namedview78"
     showgrid="false"
     inkscape:zoom="1.195308"
     inkscape:cx="387.62122"
     inkscape:cy="112.20819"
     inkscape:window-x="0"
     inkscape:window-y="0"
     inkscape:window-maximized="1"
     inkscape:current-layer="svg2"
     fit-margin-top="0"
     fit-margin-left="0"
     fit-margin-right="0"
     fit-margin-bottom="0" /><style
     type="text/css"
     id="style4">
	.st0{fill:#E76114;}
	.st1{fill:#DFDD00;}
	.st2{fill:#00B3E7;}
	.st3{fill:#9C9BA0;}
</style><defs
     id="defs6"><clipPath
       clipPathUnits="userSpaceOnUse"
       id="clipPath4356"><path
         d="M 0,404 865,404 865,0 0,0 0,404 Z"
         id="path4358"
         inkscape:connector-curvature="0" /></clipPath><clipPath
       clipPathUnits="userSpaceOnUse"
       id="clipPath4304"><path
         d="m 43,45 792,0 0,337.652 -792,0 L 43,45 Z"
         id="path4306"
         inkscape:connector-curvature="0" /></clipPath></defs><g
     transform="matrix(0.97022835,0,0,-0.97022835,-67.930247,345.07986)"
     id="g4300"><g
       id="g4302"
       clip-path="url(#clipPath4304)"><g
         id="g4308"
         transform="translate(70.0147,355.6687)"><path
           d="m 0,0 0,-194.844 c 0,0 16.823,45.921 53.693,64.558 l 0,74.778 C 24.121,-24.938 0,0 0,0"
           style="fill:#c85824;fill-opacity:1;fill-rule:nonzero;stroke:none"
           id="path4310"
           inkscape:connector-curvature="0" /></g><g
         id="g4312"
         transform="translate(123.7076,342.2419)"><path
           d="m 0,0 0,-42.082 c 25.584,-26.443 55.229,-57.096 76.957,-79.565 -31.745,16.92 -57.211,14.748 -76.957,4.787 l 0,-77.991 c 0,0 39.584,108.299 130.657,59.779 C 83.797,-86.619 0,0 0,0"
           style="fill:#cce224;fill-opacity:1;fill-rule:nonzero;stroke:none"
           id="path4314"
           inkscape:connector-curvature="0" /></g><g
         id="g4316"
         transform="translate(123.7076,300.1602)"><path
           d="m 0,0 0,-74.778 c 0,0 28.02,19.321 76.957,-4.788 L 0,0 Z"
           style="fill:#68b1e5;fill-opacity:1;fill-rule:nonzero;stroke:none"
           id="path4318"
           inkscape:connector-curvature="0" /></g><g
         id="g4320"
         transform="translate(229.1125,179.4264)"><path
           d="m 0,0 c 0.536,1.82 0.254,3.445 -0.866,4.89 -1.106,1.414 -2.596,2.105 -4.459,2.105 l -16.337,0 -6.069,-22.46 16.348,0 c 1.766,0 3.605,0.714 5.507,2.166 1.895,1.398 3.093,3.007 3.589,4.825 L 0,0 Z m -30.884,-27.482 -6.997,-25.87 -30.823,0 19.442,72.359 65.237,0 c 5.319,0 9.426,-1.873 12.318,-5.638 C 31.349,9.543 32.186,5.082 30.83,0 l -2.293,-8.474 c -1.367,-5.12 -4.582,-9.546 -9.651,-13.311 -5.04,-3.798 -10.132,-5.697 -15.298,-5.697 l -34.472,0 z"
           style="fill:#68b1e5;fill-opacity:1;fill-rule:nonzero;stroke:none"
           id="path4322"
           inkscape:connector-curvature="0" /></g><g
         id="g4324"
         transform="translate(310.6329,168.5291)"><path
           d="m 0,0 -7.369,0 c -1.853,0 -3.733,-0.693 -5.623,-2.098 -1.819,-1.452 -2.971,-3.012 -3.473,-4.702 l -9.53,-35.655 -30.825,0 9.537,35.655 c 1.272,4.864 4.448,9.197 9.525,13.004 4.993,3.828 10.174,5.746 15.539,5.746 l 56.085,0 -5.517,-20.422 -30.632,0 L 0,0 Z"
           style="fill:#68b1e5;fill-opacity:1;fill-rule:nonzero;stroke:none"
           id="path4326"
           inkscape:connector-curvature="0" /></g><g
         id="g4328"
         transform="translate(401.2534,161.7289)"><path
           d="M 0,0 C 0.496,1.734 0.187,3.294 -0.926,4.702 -1.919,6.107 -3.384,6.8 -5.32,6.8 l -9.1,0 c -1.857,0 -3.731,-0.693 -5.633,-2.098 C -21.868,3.251 -23.02,1.69 -23.522,0 l -4.573,-17.03 c -0.452,-1.82 -0.133,-3.357 0.981,-4.642 1.118,-1.361 2.607,-2.035 4.458,-2.035 l 9.168,0 c 1.813,0 3.648,0.674 5.506,2.035 1.859,1.333 3.021,2.873 3.462,4.642 L 0,0 Z m -43.822,-35.655 c -5.28,0 -9.464,1.853 -12.569,5.574 -3.009,3.791 -3.852,8.14 -2.529,13.051 L -54.346,0 c 1.28,4.864 4.454,9.198 9.531,13.005 4.995,3.828 10.172,5.745 15.54,5.745 l 45.249,0 c 5.236,0 9.344,-1.917 12.315,-5.745 C 31.298,9.249 32.153,4.911 30.83,0 l -4.581,-17.03 c -1.284,-4.911 -4.436,-9.26 -9.468,-13.051 -4.953,-3.721 -10.078,-5.574 -15.354,-5.574 l -45.249,0 z"
           style="fill:#68b1e5;fill-opacity:1;fill-rule:nonzero;stroke:none"
           id="path4330"
           inkscape:connector-curvature="0" /></g><g
         id="g4332"
         transform="translate(454.0491,198.4337)"><path
           d="m 0,0 30.828,0 -19.437,-72.36 -30.826,0 L 0,0 Z"
           style="fill:#68b1e5;fill-opacity:1;fill-rule:nonzero;stroke:none"
           id="path4334"
           inkscape:connector-curvature="0" /></g><g
         id="g4336"
         transform="translate(539.1099,161.7289)"><path
           d="M 0,0 C 0.489,1.734 0.185,3.294 -0.932,4.702 -1.925,6.107 -3.394,6.8 -5.335,6.8 l -9.1,0 C -16.283,6.8 -18.161,6.107 -20.06,4.702 -21.878,3.251 -23.03,1.69 -23.543,0 l -4.563,-17.03 c -0.456,-1.82 -0.137,-3.357 0.983,-4.642 1.113,-1.361 2.604,-2.035 4.468,-2.035 l 9.147,0 c 1.827,0 3.656,0.674 5.511,2.035 1.862,1.333 3.014,2.873 3.478,4.642 L 0,0 Z m -43.828,-35.655 c -5.281,0 -9.464,1.853 -12.573,5.574 -3.005,3.791 -3.856,8.14 -2.532,13.051 L -54.349,0 c 1.273,4.864 4.451,9.198 9.531,13.005 4.983,3.828 10.165,5.745 15.528,5.745 l 45.253,0 c 5.235,0 9.344,-1.917 12.316,-5.745 C 31.293,9.249 32.135,4.911 30.823,0 l -4.586,-17.03 c -1.278,-4.911 -4.44,-9.26 -9.465,-13.051 -4.959,-3.721 -10.072,-5.574 -15.36,-5.574 l -45.24,0 z"
           style="fill:#68b1e5;fill-opacity:1;fill-rule:nonzero;stroke:none"
           id="path4338"
           inkscape:connector-curvature="0" /></g><g
         id="g4340"
         transform="translate(619.2576,168.4063)"><path
           d="M 0,0 C -1.813,0 -3.694,-0.71 -5.627,-2.159 -7.454,-3.608 -8.556,-5.196 -8.973,-6.93 l -4.765,-17.269 c -0.489,-1.938 -0.169,-3.561 1,-4.825 1.152,-1.361 2.657,-2.047 4.505,-2.047 l 16.353,0 L 16.35,0 0,0 Z m -45.001,-60.285 3.167,12.073 38.004,0 c 3.208,0 5.917,1.73 8.096,5.198 l -33.786,0 c -5.37,0 -9.552,1.878 -12.566,5.634 -2.931,3.752 -3.729,8.152 -2.416,13.181 l 4.713,17.269 c 1.317,5.026 4.484,9.45 9.523,13.257 4.987,3.828 10.171,5.746 15.534,5.746 l 65.179,0 -14.359,-53.54 c -1.315,-4.911 -4.54,-9.244 -9.654,-12.991 -4.867,-3.886 -9.958,-5.827 -15.286,-5.827 l -56.149,0 z"
           style="fill:#68b1e5;fill-opacity:1;fill-rule:nonzero;stroke:none"
           id="path4342"
           inkscape:connector-curvature="0" /></g><g
         id="g4344"
         transform="translate(696.6993,187.0357)"><path
           d="m 0,0 c -3.962,0 -7.19,1.496 -9.668,4.463 -2.303,2.847 -2.922,6.325 -1.846,10.397 1.071,3.93 3.575,7.347 7.491,10.278 4,2.935 7.981,4.398 11.955,4.398 3.874,0 7.013,-1.463 9.469,-4.398 C 19.743,22.251 20.378,18.827 19.32,14.86 18.194,10.858 15.674,7.398 11.755,4.463 7.844,1.496 3.921,0 0,0 m -16.839,-5.321 30.774,0 -14.92,-55.641 -30.828,0 14.974,55.641 z"
           style="fill:#68b1e5;fill-opacity:1;fill-rule:nonzero;stroke:none"
           id="path4346"
           inkscape:connector-curvature="0" /></g><g
         id="g4348"
         transform="translate(766.3303,140.8039)"><path
           d="m 0,0 c 0.503,1.734 0.188,3.308 -0.925,4.711 -1.12,1.394 -2.604,2.094 -4.461,2.094 l -16.337,0 -5.819,-21.535 -30.828,0 19.441,72.36 30.828,0 -10.401,-38.75 16.332,0 c 1.776,0 3.631,0.719 5.576,2.168 1.857,1.358 3.033,2.947 3.531,4.767 l 3.955,14.725 30.763,0 -3.272,-12.191 C 36.682,21.954 32.33,16.791 25.316,12.875 30.224,8.991 31.794,3.807 30.032,-2.664 l -3.23,-12.066 -30.76,0 L 0,0 Z"
           style="fill:#68b1e5;fill-opacity:1;fill-rule:nonzero;stroke:none"
           id="path4350"
           inkscape:connector-curvature="0" /></g></g></g><g
     transform="matrix(0.97022835,0,0,-0.97022835,-67.930247,345.07986)"
     id="g4352"><g
       id="g4354"
       clip-path="url(#clipPath4356)"><g
         id="g4360"
         transform="translate(473.5967,77.8906)"><path
           d="m 0,0 c 0,0 -2.319,-3.334 -7.393,-3.334 -5.653,0 -10.002,4.349 -10.002,10.728 0,6.377 4.349,10.726 10.002,10.726 5.364,0 7.828,-4.204 7.828,-4.204 L 0,13.626 c 0,0 -2.319,3.914 -7.393,3.914 -5.073,0 -9.132,-4.059 -9.132,-10.146 0,-6.089 4.059,-10.148 9.132,-10.148 C -2.319,-2.754 0,0.87 0,0.87 l 0,6.234 -6.522,0 0,0.58 7.392,0 0,-10.438 -0.435,0 L 0.146,0 0,0 Z"
           style="fill:#918f90;fill-opacity:1;fill-rule:nonzero;stroke:none"
           id="path4362"
           inkscape:connector-curvature="0" /></g><g
         id="g4364"
         transform="translate(473.5967,77.8906)"><path
           d="m 0,0 c 0,0 -2.319,-3.334 -7.393,-3.334 -5.653,0 -10.002,4.349 -10.002,10.728 0,6.377 4.349,10.726 10.002,10.726 5.364,0 7.828,-4.204 7.828,-4.204 L 0,13.626 c 0,0 -2.319,3.914 -7.393,3.914 -5.073,0 -9.132,-4.059 -9.132,-10.146 0,-6.089 4.059,-10.148 9.132,-10.148 C -2.319,-2.754 0,0.87 0,0.87 l 0,6.234 -6.522,0 0,0.58 7.392,0 0,-10.438 -0.435,0 L 0.146,0 0,0 Z"
           style="fill:none;stroke:#959595;stroke-width:2;stroke-linecap:butt;stroke-linejoin:miter;stroke-miterlimit:10;stroke-dasharray:none;stroke-opacity:1"
           id="path4366"
           inkscape:connector-curvature="0" /></g><g
         id="g4368"
         transform="translate(497.7451,89.3428)"><path
           d="m 0,0 c 0,3.188 -2.319,5.509 -6.088,5.509 l -6.088,0 0,-11.018 6.088,0 C -2.319,-5.509 0,-3.189 0,0 m -12.176,-6.089 0,-8.117 -0.87,0 0,20.294 6.958,0 C -1.739,6.088 0.87,3.479 0.87,0 c 0,-4.929 -4.639,-5.799 -4.639,-5.799 l 0,-0.144 5.799,-8.263 -1.015,0 -5.654,8.117 -7.537,0 z"
           style="fill:#918f90;fill-opacity:1;fill-rule:nonzero;stroke:none"
           id="path4370"
           inkscape:connector-curvature="0" /></g><g
         id="g4372"
         transform="translate(497.7451,89.3428)"><path
           d="m 0,0 c 0,3.188 -2.319,5.509 -6.088,5.509 l -6.088,0 0,-11.018 6.088,0 C -2.319,-5.509 0,-3.189 0,0 Z m -12.176,-6.089 0,-8.117 -0.87,0 0,20.294 6.958,0 C -1.739,6.088 0.87,3.479 0.87,0 c 0,-4.929 -4.639,-5.799 -4.639,-5.799 l 0,-0.144 5.799,-8.263 -1.015,0 -5.654,8.117 -7.537,0 z"
           style="fill:none;stroke:#959595;stroke-width:2;stroke-linecap:butt;stroke-linejoin:miter;stroke-miterlimit:10;stroke-dasharray:none;stroke-opacity:1"
           id="path4374"
           inkscape:connector-curvature="0" /></g><g
         id="g4376"
         transform="translate(509.7178,81.5146)"><path
           d="m 0,0 10.727,0 -5.305,12.467 -0.116,0 L 0,0 Z m 11.017,-0.579 -11.307,0 -2.464,-5.799 -0.725,0 8.698,20.294 0.579,0 8.698,-20.294 -1.015,0 -2.464,5.799 z"
           style="fill:#918f90;fill-opacity:1;fill-rule:nonzero;stroke:none"
           id="path4378"
           inkscape:connector-curvature="0" /></g><g
         id="g4380"
         transform="translate(509.7178,81.5146)"><path
           d="m 0,0 10.727,0 -5.305,12.467 -0.116,0 L 0,0 Z m 11.017,-0.579 -11.307,0 -2.464,-5.799 -0.725,0 8.698,20.294 0.579,0 8.698,-20.294 -1.015,0 -2.464,5.799 z"
           style="fill:none;stroke:#959595;stroke-width:2;stroke-linecap:butt;stroke-linejoin:miter;stroke-miterlimit:10;stroke-dasharray:none;stroke-opacity:1"
           id="path4382"
           inkscape:connector-curvature="0" /></g><g
         id="g4384"
         transform="translate(533.4326,75.1367)"><path
           d="m 0,0 -0.58,0 0,20.294 0.87,0 13.771,-19.134 0.145,0 0,19.134 0.579,0 L 14.785,0 13.916,0 0.145,19.135 0,19.135 0,0 Z"
           style="fill:#918f90;fill-opacity:1;fill-rule:nonzero;stroke:none"
           id="path4386"
           inkscape:connector-curvature="0" /></g><g
         id="g4388"
         transform="translate(533.4326,75.1367)"><path
           d="m 0,0 -0.58,0 0,20.294 0.87,0 13.771,-19.134 0.145,0 0,19.134 0.579,0 L 14.785,0 13.916,0 0.145,19.135 0,19.135 0,0 Z"
           style="fill:none;stroke:#959595;stroke-width:2;stroke-linecap:butt;stroke-linejoin:miter;stroke-miterlimit:10;stroke-dasharray:none;stroke-opacity:1"
           id="path4390"
           inkscape:connector-curvature="0" /></g><g
         id="g4392"
         transform="translate(559.9004,94.8516)"><path
           d="m 0,0 0,-19.135 4.203,0 c 5.943,0 10.003,4.059 10.003,9.568 C 14.206,-4.06 10.146,0 4.203,0 L 0,0 Z m 4.203,0.579 c 6.524,0 10.872,-4.349 10.872,-10.146 0,-5.799 -4.348,-10.148 -10.872,-10.148 l -5.073,0 0,20.294 5.073,0 z"
           style="fill:#918f90;fill-opacity:1;fill-rule:nonzero;stroke:none"
           id="path4394"
           inkscape:connector-curvature="0" /></g><g
         id="g4396"
         transform="translate(559.9004,94.8516)"><path
           d="m 0,0 0,-19.135 4.203,0 c 5.943,0 10.003,4.059 10.003,9.568 C 14.206,-4.06 10.146,0 4.203,0 L 0,0 Z m 4.203,0.579 c 6.524,0 10.872,-4.349 10.872,-10.146 0,-5.799 -4.348,-10.148 -10.872,-10.148 l -5.073,0 0,20.294 5.073,0 z"
           style="fill:none;stroke:#959595;stroke-width:2;stroke-linecap:butt;stroke-linejoin:miter;stroke-miterlimit:10;stroke-dasharray:none;stroke-opacity:1"
           id="path4398"
           inkscape:connector-curvature="0" /></g><g
         id="g4400"
         transform="translate(585.209,75.7168)"><path
           d="m 0,0 12.756,0 0,-0.58 -13.626,0 0,20.294 13.046,0 -0.145,-0.579 -12.031,0 0,-8.989 8.987,0 L 8.842,9.567 0,9.567 0,0 Z"
           style="fill:#918f90;fill-opacity:1;fill-rule:nonzero;stroke:none"
           id="path4402"
           inkscape:connector-curvature="0" /></g><g
         id="g4404"
         transform="translate(585.209,75.7168)"><path
           d="m 0,0 12.756,0 0,-0.58 -13.626,0 0,20.294 13.046,0 -0.145,-0.579 -12.031,0 0,-8.989 8.987,0 L 8.842,9.567 0,9.567 0,0 Z"
           style="fill:none;stroke:#959595;stroke-width:2;stroke-linecap:butt;stroke-linejoin:miter;stroke-miterlimit:10;stroke-dasharray:none;stroke-opacity:1"
           id="path4406"
           inkscape:connector-curvature="0" /></g><g
         id="g4408"
         transform="translate(612.2568,96.0107)"><path
           d="m 0,0 c 4.349,0 6.668,-3.624 6.668,-3.624 l -0.435,-0.29 c 0,0 -2.174,3.334 -6.233,3.334 -3.624,0 -5.943,-2.319 -5.943,-4.639 0,-5.508 13.046,-4.058 13.046,-10.436 0,-3.044 -2.754,-5.799 -7.248,-5.799 -5.653,0 -7.973,4.494 -7.973,4.494 l 0.435,0.29 c 0,0 2.174,-4.204 7.538,-4.204 3.914,0 6.378,2.464 6.378,5.219 0,5.508 -13.046,4.058 -13.046,10.436 C -6.813,-2.609 -4.204,0 0,0"
           style="fill:#918f90;fill-opacity:1;fill-rule:nonzero;stroke:none"
           id="path4410"
           inkscape:connector-curvature="0" /></g><g
         id="g4412"
         transform="translate(612.2568,96.0107)"><path
           d="m 0,0 c 4.349,0 6.668,-3.624 6.668,-3.624 l -0.435,-0.29 c 0,0 -2.174,3.334 -6.233,3.334 -3.624,0 -5.943,-2.319 -5.943,-4.639 0,-5.508 13.046,-4.058 13.046,-10.436 0,-3.044 -2.754,-5.799 -7.248,-5.799 -5.653,0 -7.973,4.494 -7.973,4.494 l 0.435,0.29 c 0,0 2.174,-4.204 7.538,-4.204 3.914,0 6.378,2.464 6.378,5.219 0,5.508 -13.046,4.058 -13.046,10.436 C -6.813,-2.609 -4.204,0 0,0 Z"
           style="fill:none;stroke:#959595;stroke-width:2;stroke-linecap:butt;stroke-linejoin:miter;stroke-miterlimit:10;stroke-dasharray:none;stroke-opacity:1"
           id="path4414"
           inkscape:connector-curvature="0" /></g><g
         id="g4416"
         transform="translate(639.9717,75.7168)"><path
           d="m 0,0 12.756,0 0,-0.58 -13.626,0 0,20.294 13.046,0 -0.145,-0.579 -12.031,0 0,-8.989 8.987,0 L 8.842,9.567 0,9.567 0,0 Z"
           style="fill:#918f90;fill-opacity:1;fill-rule:nonzero;stroke:none"
           id="path4418"
           inkscape:connector-curvature="0" /></g><g
         id="g4420"
         transform="translate(639.9717,75.7168)"><path
           d="m 0,0 12.756,0 0,-0.58 -13.626,0 0,20.294 13.046,0 -0.145,-0.579 -12.031,0 0,-8.989 8.987,0 L 8.842,9.567 0,9.567 0,0 Z"
           style="fill:none;stroke:#959595;stroke-width:2;stroke-linecap:butt;stroke-linejoin:miter;stroke-miterlimit:10;stroke-dasharray:none;stroke-opacity:1"
           id="path4422"
           inkscape:connector-curvature="0" /></g><g
         id="g4424"
         transform="translate(675.2822,95.4307)"><path
           d="m 0,0 0.725,0 -8.408,-20.294 -0.58,0 L -16.67,0 l 1.015,0 7.769,-18.845 0.116,0 L 0,0 Z"
           style="fill:#918f90;fill-opacity:1;fill-rule:nonzero;stroke:none"
           id="path4426"
           inkscape:connector-curvature="0" /></g><g
         id="g4428"
         transform="translate(675.2822,95.4307)"><path
           d="m 0,0 0.725,0 -8.408,-20.294 -0.58,0 L -16.67,0 l 1.015,0 7.769,-18.845 0.116,0 L 0,0 Z"
           style="fill:none;stroke:#959595;stroke-width:2;stroke-linecap:butt;stroke-linejoin:miter;stroke-miterlimit:10;stroke-dasharray:none;stroke-opacity:1"
           id="path4430"
           inkscape:connector-curvature="0" /></g><g
         id="g4432"
         transform="translate(685.2256,75.7168)"><path
           d="m 0,0 12.756,0 0,-0.58 -13.626,0 0,20.294 13.046,0 -0.145,-0.579 -12.031,0 0,-8.989 8.987,0 L 8.842,9.567 0,9.567 0,0 Z"
           style="fill:#918f90;fill-opacity:1;fill-rule:nonzero;stroke:none"
           id="path4434"
           inkscape:connector-curvature="0" /></g><g
         id="g4436"
         transform="translate(685.2256,75.7168)"><path
           d="m 0,0 12.756,0 0,-0.58 -13.626,0 0,20.294 13.046,0 -0.145,-0.579 -12.031,0 0,-8.989 8.987,0 L 8.842,9.567 0,9.567 0,0 Z"
           style="fill:none;stroke:#959595;stroke-width:2;stroke-linecap:butt;stroke-linejoin:miter;stroke-miterlimit:10;stroke-dasharray:none;stroke-opacity:1"
           id="path4438"
           inkscape:connector-curvature="0" /></g><g
         id="g4440"
         transform="translate(706.9102,75.1367)"><path
           d="m 0,0 -0.58,0 0,20.294 0.87,0 13.771,-19.134 0.145,0 0,19.134 0.579,0 L 14.785,0 13.916,0 0.145,19.135 0,19.135 0,0 Z"
           style="fill:#918f90;fill-opacity:1;fill-rule:nonzero;stroke:none"
           id="path4442"
           inkscape:connector-curvature="0" /></g><g
         id="g4444"
         transform="translate(706.9102,75.1367)"><path
           d="m 0,0 -0.58,0 0,20.294 0.87,0 13.771,-19.134 0.145,0 0,19.134 0.579,0 L 14.785,0 13.916,0 0.145,19.135 0,19.135 0,0 Z"
           style="fill:none;stroke:#959595;stroke-width:2;stroke-linecap:butt;stroke-linejoin:miter;stroke-miterlimit:10;stroke-dasharray:none;stroke-opacity:1"
           id="path4446"
           inkscape:connector-curvature="0" /></g><g
         id="g4448"
         transform="translate(737.293,94.8516)"><path
           d="m 0,0 -7.538,0 0,0.579 15.945,0 L 8.262,0 0.869,0 l 0,-19.715 -0.869,0 L 0,0 Z"
           style="fill:#918f90;fill-opacity:1;fill-rule:nonzero;stroke:none"
           id="path4450"
           inkscape:connector-curvature="0" /></g><g
         id="g4452"
         transform="translate(737.293,94.8516)"><path
           d="m 0,0 -7.538,0 0,0.579 15.945,0 L 8.262,0 0.869,0 l 0,-19.715 -0.869,0 L 0,0 Z"
           style="fill:none;stroke:#959595;stroke-width:2;stroke-linecap:butt;stroke-linejoin:miter;stroke-miterlimit:10;stroke-dasharray:none;stroke-opacity:1"
           id="path4454"
           inkscape:connector-curvature="0" /></g><g
         id="g4456"
         transform="translate(762.3115,95.4307)"><path
           d="m 0,0 c -5.073,0 -9.133,-4.059 -9.133,-10.146 0,-6.089 4.06,-10.148 9.133,-10.148 5.073,0 9.132,4.059 9.132,10.148 C 9.132,-4.059 5.073,0 0,0 m 0,0.58 c 5.653,0 10.002,-4.349 10.002,-10.726 0,-6.379 -4.349,-10.728 -10.002,-10.728 -5.653,0 -10.002,4.349 -10.002,10.728 0,6.377 4.349,10.726 10.002,10.726"
           style="fill:#918f90;fill-opacity:1;fill-rule:nonzero;stroke:none"
           id="path4458"
           inkscape:connector-curvature="0" /></g><g
         id="g4460"
         transform="translate(762.3115,95.4307)"><path
           d="m 0,0 c -5.073,0 -9.133,-4.059 -9.133,-10.146 0,-6.089 4.06,-10.148 9.133,-10.148 5.073,0 9.132,4.059 9.132,10.148 C 9.132,-4.059 5.073,0 0,0 Z m 0,0.58 c 5.653,0 10.002,-4.349 10.002,-10.726 0,-6.379 -4.349,-10.728 -10.002,-10.728 -5.653,0 -10.002,4.349 -10.002,10.728 0,6.377 4.349,10.726 10.002,10.726 z"
           style="fill:none;stroke:#959595;stroke-width:2;stroke-linecap:butt;stroke-linejoin:miter;stroke-miterlimit:10;stroke-dasharray:none;stroke-opacity:1"
           id="path4462"
           inkscape:connector-curvature="0" /></g><g
         id="g4464"
         transform="translate(787.6191,96.0107)"><path
           d="m 0,0 c 4.349,0 6.668,-3.624 6.668,-3.624 l -0.435,-0.29 c 0,0 -2.174,3.334 -6.233,3.334 -3.624,0 -5.943,-2.319 -5.943,-4.639 0,-5.508 13.046,-4.058 13.046,-10.436 0,-3.044 -2.754,-5.799 -7.248,-5.799 -5.654,0 -7.972,4.494 -7.972,4.494 l 0.434,0.29 c 0,0 2.174,-4.204 7.538,-4.204 3.914,0 6.378,2.464 6.378,5.219 0,5.508 -13.046,4.058 -13.046,10.436 C -6.813,-2.609 -4.204,0 0,0"
           style="fill:#918f90;fill-opacity:1;fill-rule:nonzero;stroke:none"
           id="path4466"
           inkscape:connector-curvature="0" /></g><g
         id="g4468"
         transform="translate(787.6191,96.0107)"><path
           d="m 0,0 c 4.349,0 6.668,-3.624 6.668,-3.624 l -0.435,-0.29 c 0,0 -2.174,3.334 -6.233,3.334 -3.624,0 -5.943,-2.319 -5.943,-4.639 0,-5.508 13.046,-4.058 13.046,-10.436 0,-3.044 -2.754,-5.799 -7.248,-5.799 -5.654,0 -7.972,4.494 -7.972,4.494 l 0.434,0.29 c 0,0 2.174,-4.204 7.538,-4.204 3.914,0 6.378,2.464 6.378,5.219 0,5.508 -13.046,4.058 -13.046,10.436 C -6.813,-2.609 -4.204,0 0,0 Z"
           style="fill:none;stroke:#959595;stroke-width:2;stroke-linecap:butt;stroke-linejoin:miter;stroke-miterlimit:10;stroke-dasharray:none;stroke-opacity:1"
           id="path4470"
           inkscape:connector-curvature="0" /></g></g></g></svg>